<?xml version="1.0" standalone="no"?>
<!DOCTYPE svg PUBLIC "-//W3C//DTD SVG 20010904//EN"
 "http://www.w3.org/TR/2001/REC-SVG-20010904/DTD/svg10.dtd">
<svg version="1.0" xmlns="http://www.w3.org/2000/svg"
 width="528.000000pt" height="570.000000pt" viewBox="0 0 528.000000 570.000000"
 preserveAspectRatio="xMidYMid meet">

<g transform="translate(0.000000,570.000000) scale(0.100000,-0.100000)"
fill="#000000" stroke="none">
<path d="M3035 4836 c-96 -46 -145 -121 -145 -226 0 -111 68 -204 171 -234 65
-20 83 -20 145 -1 106 31 174 124 174 237 -1 80 -24 132 -83 184 -77 68 -173
83 -262 40z"/>
<path d="M1836 4620 c-102 -31 -172 -147 -152 -254 10 -54 65 -127 115 -153
87 -45 203 -24 268 50 41 47 56 96 51 166 -10 136 -149 231 -282 191z"/>
<path d="M3117 4316 c-67 -24 -101 -60 -163 -173 -86 -157 -149 -188 -374
-188 -221 1 -341 31 -452 113 -85 63 -138 74 -219 47 -59 -20 -116 -76 -148
-145 -52 -112 -27 -290 66 -460 67 -124 137 -189 188 -176 33 8 115 104 159
184 58 105 134 200 190 238 112 74 374 109 474 64 68 -31 107 -66 183 -167 40
-52 84 -102 97 -111 47 -31 116 -21 237 33 134 60 189 65 252 23 22 -14 48
-43 58 -64 26 -55 16 -173 -24 -286 -17 -48 -39 -127 -50 -176 -26 -118 -49
-162 -135 -251 -85 -88 -188 -163 -265 -192 -53 -19 -68 -20 -256 -14 -290 10
-365 -3 -620 -111 -80 -34 -99 -39 -175 -39 -70 0 -93 4 -130 23 -98 51 -247
160 -345 253 -72 67 -125 107 -172 131 -66 32 -71 33 -183 31 -128 -1 -225
-20 -299 -57 -159 -81 -142 -227 51 -441 79 -88 106 -128 136 -205 39 -99 44
-141 52 -435 4 -159 13 -306 19 -326 17 -56 52 -100 96 -123 54 -28 211 -29
267 -2 67 32 79 65 94 259 13 175 28 246 69 328 55 108 137 105 257 -9 21 -19
47 -60 59 -91 37 -94 61 -145 80 -172 46 -66 112 -220 168 -394 85 -267 125
-321 275 -368 59 -18 95 -22 211 -22 126 0 145 2 192 24 36 16 60 35 75 60 22
34 23 50 28 256 6 254 12 274 106 393 86 107 136 221 174 394 34 158 103 274
175 298 47 15 98 -8 198 -92 128 -107 182 -124 306 -97 62 13 109 44 134 87
30 50 24 147 -19 352 -56 269 -50 328 49 466 20 28 53 85 73 128 46 97 57 195
29 278 -33 102 -69 129 -202 153 -148 26 -339 106 -460 191 -95 68 -145 137
-194 271 -51 137 -176 279 -269 307 -64 19 -74 19 -123 2z"/>
<path d="M3922 4316 c-159 -52 -244 -210 -198 -368 23 -79 97 -159 174 -188
151 -57 327 20 382 168 70 185 -57 383 -253 397 -38 3 -78 0 -105 -9z"/>
<path d="M1108 3797 c-130 -55 -198 -151 -206 -292 -3 -65 0 -91 17 -136 59
-155 231 -246 389 -205 155 39 253 163 253 318 0 106 -31 181 -105 251 -87 83
-237 110 -348 64z"/>
<path d="M2530 3501 c-115 -38 -204 -115 -253 -218 -29 -62 -32 -76 -32 -168
0 -93 2 -105 32 -165 42 -84 109 -152 191 -192 62 -31 73 -33 172 -33 99 0
108 2 168 33 87 45 146 103 182 176 99 203 20 441 -178 538 -58 29 -76 33
-161 35 -53 1 -107 -1 -121 -6z"/>
</g>
</svg>
